<svg viewBox="0 0 594 160" fill="none" xmlns="http://www.w3.org/2000/svg">
<path d="M228.5 39.5001C234.95 39.5001 242.206 40.4628 250.967 42.1503L256 43.0001L254 59.0001C244.386 58.0358 238.068 57.1572 233.444 57.1572C224.195 57.1572 217.989 59.2064 214.825 63.3047C211.661 67.403 209.98 75.0029 209.98 86.3334C209.98 97.664 211.6 105.613 214.643 109.953C217.685 114.292 224.013 116.462 233.626 116.462L254 115L256 131C243.709 133.17 233.992 134 227.785 134C213.912 134 204.116 130.324 198.397 122.971C192.799 115.498 190 103.323 190 86.4479C190 69.5726 192.981 57.5791 198.944 50.4674C204.907 43.2351 214.992 39.5001 228.5 39.5001Z" fill="#1B1F2D"/>
<path d="M286 134H266V0H286V46C295.005 41.5401 303.833 39.5001 311.5 39.5001C323.669 39.5001 331.853 43.0543 336.234 49.925C340.736 56.6751 343 68.3301 343 84V134H323V84C323 74.2364 322.057 67.403 319.988 63.3047C317.919 59.2064 313.538 57.1572 306.845 57.1572C301.004 57.1572 295 57.1572 289.322 60.0501L286 62V134Z" fill="#1B1F2D"/>
<path d="M427 115L429 131C415.127 133.772 401.972 134 391.264 134C377.756 134 368.02 130.324 362.058 122.971C356.216 115.618 353 104.152 353 88C353 55.9369 366.593 39.5001 393 39.5001C418.555 39.5001 431 53.3968 431 81C431 88.3667 429 96 429 96H373C373.122 103.473 375.139 108.084 378.303 111.58C381.467 115.076 387.369 116.823 396.01 116.823C406.477 116.823 416.651 116.725 427 115ZM412 80.0001C412 71.0803 410.421 65.4956 407.5 62C404.701 58.3839 399.815 56.0001 393 56.0001C386.185 56.0001 380.664 58.2633 377.5 62C374.458 65.7367 373.182 71.4419 373.061 80.0001H412Z" fill="#1B1F2D"/>
<path d="M537.01 134H517.03V0H537.01V78L547 76L571 40H594L565 85L594 134H571L547 97L537.01 98V134Z" fill="#1B1F2D"/>
<path d="M479.5 39.5001C485.95 39.5001 493.206 40.4628 501.967 42.1503L507 43.0001L505 59.0001C495.386 58.0358 489.068 57.1572 484.444 57.1572C475.195 57.1572 468.989 59.2064 465.825 63.3047C462.661 67.403 460.98 75.0029 460.98 86.3334C460.98 97.664 462.6 105.613 465.643 109.953C468.685 114.292 475.013 116.462 484.626 116.462L505 115L507 131C494.709 133.17 484.992 134 478.785 134C464.912 134 455.116 130.324 449.397 122.971C443.799 115.498 441 103.323 441 86.4479C441 69.5726 443.981 57.5791 449.944 50.4674C455.907 43.2351 465.992 39.5001 479.5 39.5001Z" fill="#1B1F2D"/>
<path fill-rule="evenodd" clip-rule="evenodd" d="M80 160C124.183 160 160 124.183 160 80C160 35.8172 124.183 0 80 0C35.8172 0 0 35.8172 0 80C0 124.183 35.8172 160 80 160ZM80 140C91.6977 140 102.614 136.652 111.842 130.863C95.1045 130.57 78.7502 125.013 64.5212 118.139C52.0877 112.133 44.8847 109.825 38.185 108.82C34.6285 108.287 31.1469 108.095 26.9398 108.037C37.006 127.048 56.9904 140 80 140ZM74.8459 100.718C95.4094 110.376 115.959 114.477 133.907 106.376C137.809 98.4152 140 89.4635 140 80C140 74.6532 139.301 69.4698 137.988 64.5363C131.789 73.7298 121.278 79.7759 109.356 79.7759C90.2965 79.7759 74.8459 64.3253 74.8459 45.2661C74.8459 35.4232 78.9667 26.5427 85.5773 20.2558C83.7409 20.0865 81.8805 20 80 20C46.8629 20 20 46.8629 20 80C20 82.659 20.173 85.2776 20.5083 87.8451C23.4377 87.8328 26.2189 87.8375 28.9075 87.9049V71.9186L51.8767 55.126L74.8459 71.9186V100.718ZM123.697 45.2661C123.697 53.1868 117.276 59.6078 109.356 59.6078C101.435 59.6078 95.014 53.1868 95.014 45.2661C95.014 37.3454 101.435 30.9244 109.356 30.9244C117.276 30.9244 123.697 37.3454 123.697 45.2661Z" fill="#1B1F2D"/>
</svg>
