<svg width="160" height="160" viewBox="0 0 160 160" fill="none" xmlns="http://www.w3.org/2000/svg">
<path fill-rule="evenodd" clip-rule="evenodd" d="M80 160C124.183 160 160 124.183 160 80C160 35.8172 124.183 0 80 0C35.8172 0 0 35.8172 0 80C0 124.183 35.8172 160 80 160ZM80 140C91.6977 140 102.614 136.652 111.842 130.863C95.1045 130.57 78.7502 125.013 64.5212 118.139C52.0877 112.133 44.8847 109.825 38.185 108.82C34.6285 108.287 31.1469 108.095 26.9398 108.037C37.006 127.048 56.9904 140 80 140ZM74.8459 100.718C95.4094 110.376 115.959 114.477 133.907 106.376C137.809 98.4152 140 89.4635 140 80C140 74.6532 139.301 69.4698 137.988 64.5363C131.789 73.7298 121.278 79.7759 109.356 79.7759C90.2965 79.7759 74.8459 64.3253 74.8459 45.2661C74.8459 35.4232 78.9667 26.5427 85.5773 20.2558C83.7409 20.0865 81.8805 20 80 20C46.8629 20 20 46.8629 20 80C20 82.659 20.173 85.2776 20.5083 87.8451C23.4377 87.8328 26.2189 87.8375 28.9075 87.9049V71.9186L51.8767 55.126L74.8459 71.9186V100.718ZM123.697 45.2661C123.697 53.1868 117.276 59.6078 109.356 59.6078C101.435 59.6078 95.014 53.1868 95.014 45.2661C95.014 37.3454 101.435 30.9244 109.356 30.9244C117.276 30.9244 123.697 37.3454 123.697 45.2661Z" fill="#1B1F2D"/>
</svg>
